<svg xmlns="http://www.w3.org/2000/svg" id="Layer_1" data-name="Layer 1" viewBox="0 0 90 90"><defs><style> .cls-1 { fill: none; stroke: #5240fe; stroke-linecap: round; stroke-linejoin: round; stroke-width: 4px; } </style></defs><g><line class="cls-1" x1="45" y1="59.68" x2="45" y2="23.84"></line><path class="cls-1" d="M45,72.78c-3.02-2.98-9.54-5.06-17.11-5.06-5.73,0-10.86,1.19-14.32,3.06-1.26.68-2.78-.24-2.78-1.67V25.31c0-1.03.4-2.02,1.14-2.73,3.35-3.22,9.24-5.36,15.97-5.36,3.12,0,6.06.46,8.65,1.28"></path></g><g><line class="cls-1" x1="45" y1="23.84" x2="45" y2="59.68"></line><path class="cls-1" d="M45,72.78c3.02-2.98,9.54-5.06,17.11-5.06,5.73,0,10.86,1.19,14.32,3.06,1.26.68,2.78-.24,2.78-1.67V25.31c0-1.03-.4-2.02-1.14-2.73-3.35-3.22-9.24-5.36-15.97-5.36-7.57,0-14.08,2.71-17.11,6.63"></path></g></svg>