<svg xmlns="http://www.w3.org/2000/svg" id="Layer_1" data-name="Layer 1" viewBox="0 0 90 90"><defs><style> .cls-1 { fill: none; stroke: #5240fe; stroke-linecap: round; stroke-linejoin: round; stroke-width: 4px; } </style></defs><g><line class="cls-1" x1="20.97" y1="56.02" x2="32.83" y2="56.02"></line><line class="cls-1" x1="20.97" y1="43.92" x2="35.23" y2="43.92"></line><line class="cls-1" x1="20.97" y1="31.81" x2="42" y2="31.81"></line></g><g><path class="cls-1" d="M43.66,42.02l-3.08,12.68,12.68-3.08,26.11-26.11c2.65-2.65,2.65-6.95,0-9.6h0c-2.65-2.65-6.95-2.65-9.6,0l-26.11,26.11Z"></path><line class="cls-1" x1="69.3" y1="22.09" x2="74.53" y2="27.32"></line></g><path class="cls-1" d="M67.84,49.16v20.88c0,3.46-2.81,6.27-6.27,6.27H14.9c-3.46,0-6.27-2.81-6.27-6.27V19.96c0-3.46,2.81-6.27,6.27-6.27h46.67"></path></svg>