<svg xmlns="http://www.w3.org/2000/svg" id="Layer_2" data-name="Layer 2" viewBox="0 0 2622.49 2099.06"><defs><style> .cls-1, .cls-2, .cls-3, .cls-4, .cls-5, .cls-6, .cls-7, .cls-8 { stroke-width: 0px; } .cls-2 { fill: #fa3a2f; } .cls-3 { fill: #f8c300; } .cls-4 { fill: #e2b500; } .cls-5 { fill: #009ad9; } .cls-6 { fill: #a156a9; } .cls-7 { fill: #f77700; } .cls-8 { fill: #00bc99; } </style></defs><g id="svg18"><g><g><g><path class="cls-4" d="M1952.37,347.94c-333.59,0-625.02-240.99-639.23-252.93-.04.03-.08.07-.13.11-12.48,10.48-304.7,253.03-639.37,253.03,0,0-69.68,237.54-221.71,240.71,0,0,3.47,360.55,127.84,722.5,188.21-17.64,447.62-33.99,735.65-33.99s544.09,16.22,730.82,33.78c124.37-361.95,127.84-722.49,127.84-722.49-152.03-3.17-221.71-240.71-221.71-240.71Z"></path><path class="cls-4" d="M497.38,1280.57c4.02,12.72,8.13,25.29,12.32,37.74,13.44-1.41,27.36-2.83,41.75-4.24-4.77-14-9.43-28.16-13.96-42.52-109.13-345.46-113.56-680.2-113.59-683.54l-.27-27.73,27.72-.58c129.59-2.7,194.75-218.41,195.39-220.59l5.93-20.11,20.97-.02c324.32,0,609.35-236.39,621.33-246.46l.88-.72,17.91-14.02,17.41,14.63c11.97,10.06,296.96,246.36,621.19,246.36h21l5.91,20.15c.64,2.16,65.79,217.87,195.38,220.57l27.72.58-.27,27.73c-.03,3.34-4.47,338.45-113.78,684.11-4.48,14.16-9.08,28.12-13.78,41.94,14.39,1.42,28.31,2.84,41.74,4.26,4.13-12.26,8.19-24.64,12.15-37.16,111.18-351.58,115.7-692.99,115.73-696.39l.67-69.32-69.31-1.45c-81.19-1.69-141.27-141.56-155.89-190.35l-14.78-50.38h-52.5c-309.08,0-582.64-226.85-594.13-236.5L1314.71,0l-44.98,35.2-1.82,1.48c-11.5,9.66-285.12,236.59-594.31,236.59l-52.38.05-14.79,50.12c-14.65,48.9-74.75,188.86-155.95,190.55l-69.31,1.45.67,69.32c.03,3.4,4.56,344.46,115.55,695.8Z"></path><path class="cls-4" d="M814.36,1747.76c121.07,144.72,282.53,253.56,497.95,285.2,216.16-31.38,378.08-140.41,499.41-285.48-153.66-11.7-330.23-21.29-496.3-21.29s-345.95,9.74-501.06,21.57Z"></path><path class="cls-4" d="M1844.99,1750.08c-6.1,7.57-12.26,15.02-18.5,22.32-137.91,161.46-309.56,258.09-510.16,287.22l-4.05.59-4.05-.6c-200.28-29.42-371.64-126.22-509.33-287.72-6.01-7.04-11.94-14.23-17.81-21.52-16.17,1.29-32.05,2.6-47.59,3.91,10.91,14.16,22.03,27.92,33.39,41.24,144.49,169.48,324.56,271.11,535.21,302.05l10.14,1.49,10.14-1.47c211-30.63,391.37-132.08,536.1-301.53,11.6-13.58,22.96-27.62,34.09-42.07-15.54-1.32-31.41-2.62-47.58-3.91Z"></path></g><path class="cls-4" d="M2240.2,1760.34s-494.09-63.34-924.84-63.34-928.01,63.34-928.01,63.34l-55.39-392.62s403.79-63.47,983.4-63.47,978.68,63.47,978.68,63.47l-53.84,392.62Z"></path><path class="cls-4" d="M2375.44,1461.43l247.05-167.86-451.33-58.59c-11.09,41.17-33.26,85.52-33.26,85.52l179.51,24.78-43.32,307.26,68.78,9.34,205.18,30.78-172.62-231.21Z"></path><path class="cls-4" d="M247.05,1461.43L0,1293.57l451.33-58.59c11.09,41.17,33.26,85.52,33.26,85.52l-179.51,24.78,43.32,307.26-68.78,9.34-205.18,30.78,172.62-231.21Z"></path></g><g><path class="cls-1" d="M919.61,699.84c-1.62.54-3.33.81-5.13.81-2.52,0-4.32-.49-5.4-1.48-1.08-.99-1.8-2.02-2.16-3.11-4.14-10.26-9.49-17.63-16.06-22.13-6.57-4.49-15.34-6.75-26.32-6.75-8.64,0-15.97,2.12-22,6.34-6.03,4.23-9.04,10.66-9.04,19.3,0,6.66,2.29,12.01,6.88,16.06,4.59,4.05,10.34,7.6,17.27,10.66,6.92,3.06,14.39,6.03,22.4,8.91,8.01,2.88,15.47,6.48,22.4,10.8,6.92,4.32,12.69,9.81,17.27,16.47,4.59,6.66,6.88,15.21,6.88,25.64,0,6.84-1.17,13.5-3.51,19.97-2.34,6.48-6.03,12.19-11.07,17.14-5.04,4.95-11.43,8.91-19.16,11.87-7.74,2.97-17,4.45-27.8,4.45-11.88,0-22.5-1.28-31.85-3.84-9.36-2.56-17.1-5.34-23.21-8.33-.54-7.72-1.4-15.31-2.56-22.78-1.17-7.46-2.48-14.71-3.91-21.73,1.8-.72,3.87-1.08,6.21-1.08,2.16,0,3.78.41,4.86,1.22s1.98,2.21,2.7,4.18c2.34,6.84,4.95,12.73,7.83,17.68,2.88,4.95,6.21,9,9.99,12.15,3.78,3.15,8.14,5.45,13.09,6.88,4.95,1.44,10.66,2.16,17.14,2.16,5.57,0,10.34-.76,14.3-2.3,3.96-1.53,7.19-3.56,9.72-6.08,2.52-2.52,4.41-5.5,5.67-8.93,1.26-3.42,1.89-6.94,1.89-10.54,0-7.75-2.2-13.83-6.61-18.25-4.41-4.42-9.9-8.11-16.47-11.08-6.57-2.97-13.68-5.77-21.32-8.38-7.65-2.61-14.76-5.95-21.32-10-6.57-4.06-12.06-9.28-16.46-15.68-4.41-6.4-6.61-15-6.61-25.82,0-7.21,1.3-13.93,3.91-20.14,2.61-6.22,6.43-11.62,11.47-16.22,5.03-4.6,11.11-8.25,18.22-10.95,7.11-2.7,15.25-4.06,24.43-4.06,7.56,0,15.16.81,22.81,2.43,7.64,1.62,16.33,4.32,26.05,8.1.36,5.4.94,11.47,1.75,18.22.81,6.75,1.75,12.82,2.83,18.22Z"></path><path class="cls-1" d="M1013.8,814.01c1.8-1.08,3.33-1.62,4.59-1.62,1.8,0,3.69,1.89,5.67,5.67-7.56,6.84-14.17,11.34-19.84,13.5s-11.65,3.24-17.95,3.24c-3.6,0-7.06-.45-10.39-1.35-3.33-.9-6.34-2.52-9.04-4.86-2.7-2.34-4.86-5.54-6.48-9.58s-2.43-9.22-2.43-15.52v-74.23h-16.19v-6.75c0-.72.18-1.62.54-2.7.36-1.08,1.44-1.62,3.24-1.62,4.86,0,9.35-1.39,13.5-4.18,4.14-2.79,7.46-6.97,9.99-12.55,1.98-4.14,4.18-7.46,6.61-9.99,2.43-2.52,4.81-3.78,7.15-3.78h5.67v28.07h31.58c0,5.76-.4,9.45-1.22,11.07s-2.29,2.43-4.45,2.43h-25.91v66.67c0,5.4.18,9.68.54,12.82.36,3.15.94,5.53,1.75,7.15.81,1.62,1.89,2.66,3.24,3.1,1.35.45,2.92.67,4.72.67,1.98,0,4.32-.49,7.02-1.48,2.7-.99,5.4-2.38,8.1-4.18Z"></path><path class="cls-1" d="M1119.61,712.79c5.22,0,9.13,1.35,11.74,4.05,2.61,2.7,3.91,6.12,3.91,10.26,0,1.26-.23,2.34-.67,3.24-.45.9-1.44,1.89-2.97,2.97-1.53,1.08-3.64,2.3-6.34,3.65s-6.21,3.02-10.53,4.99c-2.88-2.88-5.53-4.81-7.96-5.8-2.43-.99-4.82-1.49-7.15-1.49-2.16,0-4.28.36-6.34,1.08-2.07.72-3.91,2.12-5.53,4.18-1.62,2.07-2.93,4.82-3.91,8.23-.99,3.42-1.48,7.83-1.48,13.23v50.2c0,3.6,1.44,6.25,4.32,7.96,2.88,1.71,8.55,3.29,17.01,4.72,1.98.36,2.97,1.53,2.97,3.51,0,2.52-.18,4.23-.54,5.13-2.34-.18-5.22-.32-8.64-.41-3.42-.09-7.02-.23-10.8-.4-3.78-.18-7.51-.32-11.2-.41-3.69-.09-6.98-.13-9.85-.13-6.84,0-12.69.13-17.54.41-4.86.27-9.45.58-13.77.94-.36-.9-.54-2.61-.54-5.13,0-1.98.99-3.14,2.97-3.51,5.76-1.08,9.72-2.25,11.88-3.51,2.16-1.26,3.24-3.24,3.24-5.94v-72.61c0-4.14-.77-7.46-2.29-9.99-1.53-2.52-5.8-4.23-12.82-5.13-2.52-.36-3.78-1.71-3.78-4.05v-2.16c0-.9.18-1.62.54-2.16,1.08,0,2.61-.04,4.59-.13,1.98-.09,4.14-.18,6.48-.27,2.34-.09,4.68-.22,7.02-.4,2.34-.18,4.41-.45,6.21-.81,3.96-.54,8.05-1.21,12.28-2.02,4.23-.81,7.06-1.21,8.5-1.21,2.52,0,3.78,1.35,3.78,4.05v14.57c6.3-6.83,12.32-11.83,18.08-14.98,5.76-3.15,12.15-4.72,19.16-4.72Z"></path><path class="cls-1" d="M1255.91,823.19c2.7,0,4.05,2.25,4.05,6.75-2.34,1.62-5.26,2.83-8.77,3.64-3.51.81-7.06,1.22-10.66,1.22-8.1,0-14.3-1.98-18.62-5.94-4.32-3.96-6.84-8.55-7.56-13.76-3.6,7.2-8.41,12.28-14.44,15.25-6.03,2.97-13.09,4.45-21.19,4.45-3.78,0-7.96-.32-12.55-.95-4.59-.63-8.82-1.93-12.69-3.91-3.87-1.98-7.15-4.77-9.85-8.37-2.7-3.6-4.05-8.37-4.05-14.3,0-6.66,1.71-12.32,5.13-17,3.42-4.68,7.69-8.59,12.82-11.74,5.13-3.14,10.75-5.67,16.87-7.56,6.12-1.89,11.88-3.46,17.27-4.72,2.34-.54,4.77-1.12,7.29-1.75,2.52-.63,4.5-1.12,5.94-1.49,1.98-.54,3.24-1.3,3.78-2.29.54-.99.81-3.55.81-7.69,0-9.18-1.35-16.24-4.05-21.19-2.7-4.95-7.29-7.42-13.77-7.42-5.22,0-8.95,1.62-11.2,4.86-2.25,3.24-4.37,8.37-6.34,15.39-.54,1.98-2.12,3.47-4.72,4.45-2.61.99-5.9,2.02-9.85,3.1-2.16.54-4.37.99-6.61,1.35-2.25.36-4.28.54-6.07.54-1.08,0-1.8-.4-2.16-1.22-.36-.81-.54-2.38-.54-4.72,0-4.49,1.66-8.91,4.99-13.22,3.33-4.32,7.51-8.14,12.55-11.47,5.04-3.33,10.57-5.98,16.6-7.96,6.03-1.98,11.83-2.97,17.41-2.97,6.66,0,12.69.59,18.08,1.75,5.4,1.17,10.03,3.23,13.9,6.19,3.87,2.96,6.88,6.91,9.04,11.85,2.16,4.93,3.24,11.27,3.24,18.98v47.39c0,6.28.14,10.86.41,13.74.27,2.87.76,5.03,1.48,6.46,1.62,3.23,4.14,4.84,7.56,4.84,1.44,0,2.65-.09,3.64-.27.99-.18,1.93-.27,2.83-.27ZM1209.49,772.71l-5.94,1.08c-4.14.72-8.01,1.76-11.61,3.11-3.6,1.35-6.71,3.15-9.31,5.4-2.61,2.25-4.68,5.04-6.21,8.37-1.53,3.33-2.29,7.34-2.29,12.01,0,7.02,1.12,11.92,3.37,14.71,2.25,2.79,5.53,4.18,9.85,4.18,6.84,0,12.24-2.52,16.19-7.56,3.96-5.03,5.94-12.05,5.94-21.05v-20.24Z"></path><path class="cls-1" d="M1340.13,814.01c1.8-1.08,3.33-1.62,4.59-1.62,1.8,0,3.69,1.89,5.67,5.67-7.56,6.84-14.17,11.34-19.84,13.5s-11.65,3.24-17.95,3.24c-3.6,0-7.06-.45-10.39-1.35-3.33-.9-6.34-2.52-9.04-4.86-2.7-2.34-4.86-5.54-6.48-9.58s-2.43-9.22-2.43-15.52v-74.23h-16.19v-6.75c0-.72.18-1.62.54-2.7.36-1.08,1.44-1.62,3.24-1.62,4.86,0,9.35-1.39,13.5-4.18,4.14-2.79,7.46-6.97,9.99-12.55,1.98-4.14,4.18-7.46,6.61-9.99,2.43-2.52,4.81-3.78,7.15-3.78h5.67v28.07h31.58c0,5.76-.4,9.45-1.22,11.07s-2.29,2.43-4.45,2.43h-25.91v66.67c0,5.4.18,9.68.54,12.82.36,3.15.94,5.53,1.75,7.15.81,1.62,1.89,2.66,3.24,3.1,1.35.45,2.92.67,4.72.67,1.98,0,4.32-.49,7.02-1.48,2.7-.99,5.4-2.38,8.1-4.18Z"></path><path class="cls-1" d="M1462.98,806.72c1.61-1.26,3.05-1.89,4.3-1.89.89,0,1.93.41,3.1,1.22,1.16.81,2.37,2.39,3.63,4.72-7.02,8.28-15.07,14.35-24.16,18.22-9.09,3.87-19.84,5.8-32.26,5.8-7.02,0-13.9-1.13-20.65-3.37-6.75-2.25-12.82-5.76-18.22-10.53-5.4-4.77-9.76-10.75-13.09-17.95-3.33-7.2-4.99-15.83-4.99-25.91s1.93-18.85,5.8-26.86c3.87-8,8.77-14.8,14.71-20.38,5.94-5.57,12.42-9.85,19.43-12.82,7.02-2.97,13.76-4.45,20.24-4.45,17.45,0,30.63,5.04,39.54,15.11,8.91,10.08,13.36,23.84,13.36,41.3,0,1.26-.63,1.89-1.89,1.89l-77.2,3.24c0,14.04,3.14,24.79,9.41,32.26,6.28,7.47,15.69,11.2,28.25,11.2,5.56,0,11.02-.9,16.41-2.7,5.38-1.8,10.13-4.49,14.26-8.1ZM1416.92,724.4c-6.98,0-12.57,3.02-16.77,9.04-4.21,6.03-6.31,15.52-6.31,28.48l41.86-1.89c2.68-.18,4.02-1.35,4.02-3.51,0-3.42-.45-7.02-1.34-10.8-.89-3.78-2.28-7.24-4.16-10.39-1.88-3.14-4.25-5.76-7.11-7.83-2.86-2.07-6.26-3.11-10.2-3.11Z"></path><path class="cls-1" d="M1509.9,826.97c-3.6-1.98-6.34-4.68-8.23-8.1-1.89-3.42-2.83-7.19-2.83-11.34,0-5.76,1.35-10.34,4.05-13.76,2.7-3.42,6.93-6.92,12.69-10.53-4.68-3.06-8.82-6.97-12.42-11.74-3.6-4.77-5.4-10.93-5.4-18.49,0-5.76,1.3-11.11,3.91-16.06,2.61-4.95,6.07-9.22,10.39-12.82,4.32-3.6,9.35-6.43,15.11-8.5,5.76-2.07,11.88-3.1,18.35-3.1,8.81,0,16.33,1.31,22.54,3.91,6.21,2.61,11.11,5.26,14.71,7.96l26.45-12.96c2.16,1.44,3.82,3.37,4.99,5.8,1.17,2.43,1.76,4.72,1.76,6.88,0,1.8-.36,3.28-1.08,4.45-.72,1.17-2.07,1.76-4.05,1.76-.72,0-1.8-.04-3.24-.13-1.44-.09-2.61-.13-3.51-.13-1.98,0-3.96.13-5.94.4-1.98.27-4.5.86-7.56,1.76,4.32,5.58,6.48,12.41,6.48,20.51,0,10.98-4.37,20.07-13.09,27.26-8.73,7.2-21.55,10.8-38.46,10.8-3.78,0-7.38-.22-10.8-.67-3.42-.45-6.66-1.22-9.72-2.3-3.6,1.98-6.12,3.91-7.56,5.8-1.44,1.89-2.16,3.56-2.16,4.99s.36,2.7,1.08,3.78c.72,1.08,2.16,1.98,4.32,2.7,2.16.72,5.26,1.31,9.31,1.75,4.05.45,9.4.67,16.06.67,9,0,17.28.77,24.83,2.3,7.56,1.53,14.08,3.91,19.57,7.15,5.49,3.24,9.76,7.42,12.82,12.55,3.06,5.13,4.59,11.29,4.59,18.49,0,6.48-1.31,12.64-3.91,18.49-2.61,5.84-6.52,10.97-11.74,15.39-5.22,4.41-11.74,7.92-19.57,10.53-7.83,2.61-16.96,3.91-27.4,3.91-8.1,0-15.57-.67-22.4-2.02-6.84-1.35-12.73-3.56-17.68-6.61-4.95-3.06-8.82-7.02-11.61-11.87-2.79-4.86-4.18-10.89-4.18-18.08s2.02-13.09,6.07-18.22c4.05-5.13,8.86-9.31,14.44-12.55ZM1518,832.09c-1.98,2.52-3.29,5.31-3.91,8.37-.63,3.06-.94,6.39-.94,9.99,0,4.14.67,8.14,2.02,12.01,1.35,3.87,3.55,7.29,6.61,10.26,3.06,2.97,7.02,5.4,11.88,7.29,4.86,1.89,10.7,2.83,17.54,2.83,11.16,0,19.3-2.61,24.43-7.83s7.69-11.52,7.69-18.89c0-5.4-2.79-9.94-8.37-13.63-5.58-3.69-15.03-5.53-28.34-5.53-4.68,0-9.72-.45-15.12-1.35-5.4-.9-9.9-2.07-13.5-3.51ZM1548.23,778.92c5.22,0,9.58-1.8,13.09-5.4,3.51-3.6,5.26-9.35,5.26-17.28,0-3.95-.23-7.83-.67-11.61-.45-3.78-1.48-7.15-3.1-10.12-1.62-2.97-3.91-5.4-6.88-7.29-2.97-1.89-6.88-2.83-11.74-2.83s-8.91,1.98-12.15,5.94c-3.24,3.96-4.86,9.36-4.86,16.19,0,4.14.22,8.14.67,12.01.45,3.87,1.44,7.29,2.97,10.26,1.53,2.97,3.64,5.4,6.34,7.29s6.39,2.83,11.07,2.83Z"></path><path class="cls-1" d="M1660.51,831.55c-7.02,0-13.05.13-18.08.41-5.04.27-9.9.58-14.58.94-.36-1.8-.54-3.51-.54-5.13,0-1.25.31-2.11.94-2.56.63-.45,1.3-.76,2.02-.95,5.76-1.08,9.72-2.25,11.88-3.51,2.16-1.26,3.24-3.24,3.24-5.94v-71.26c0-5.4-.9-9.54-2.7-12.42-1.8-2.88-6.03-4.59-12.69-5.13-2.34-.36-3.51-1.8-3.51-4.32v-2.02c0-.81.18-1.57.54-2.29,1.08,0,2.65-.04,4.72-.13,2.07-.09,4.27-.18,6.61-.27,2.34-.09,4.68-.22,7.02-.4,2.34-.18,4.5-.36,6.48-.54,4.5-.54,8.81-1.26,12.96-2.16,4.14-.9,6.92-1.35,8.37-1.35,2.88,0,4.32,1.35,4.32,4.05,0,1.98-.27,4.59-.81,7.83s-.81,7.74-.81,13.5v76.93c0,2.7,1.17,4.68,3.51,5.94,2.34,1.26,6.21,2.43,11.61,3.51,1.98.36,2.97,1.53,2.97,3.51v2.7c0,.9-.18,1.71-.54,2.43-4.5-.36-9.36-.67-14.58-.94-5.22-.27-11.34-.41-18.35-.41ZM1640.81,673.11c0-5.76,1.84-10.48,5.53-14.17,3.69-3.68,8.32-5.53,13.9-5.53s10.43,1.85,14.04,5.53c3.6,3.69,5.4,8.41,5.4,14.17s-1.8,10.49-5.4,14.17c-3.6,3.69-8.28,5.53-14.04,5.53s-10.21-1.84-13.9-5.53c-3.69-3.68-5.53-8.41-5.53-14.17Z"></path><path class="cls-1" d="M1766.04,724.4c-7.56,0-13.23,3.74-17,11.2-3.78,7.47-5.67,17.5-5.67,30.09,0,18,3.28,31.14,9.85,39.41,6.57,8.28,15.79,12.41,27.67,12.41,4.32,0,8.59-.49,12.82-1.48,4.23-.99,8.86-3.11,13.9-6.34,1.8-1.08,3.42-1.62,4.86-1.62s2.61.59,3.51,1.76c.9,1.17,1.89,3.02,2.97,5.53-5.94,5.4-13,9.99-21.19,13.76-8.19,3.78-18.22,5.67-30.1,5.67-7.92,0-15.43-1.17-22.54-3.51-7.11-2.34-13.32-5.94-18.62-10.8-5.31-4.86-9.49-10.93-12.55-18.22-3.06-7.29-4.59-15.88-4.59-25.78s1.84-18.22,5.53-26.05c3.68-7.83,8.41-14.58,14.17-20.24,5.76-5.67,12.23-10.03,19.43-13.09,7.19-3.06,14.21-4.59,21.05-4.59,8.64,0,16.01.99,22.13,2.97,6.12,1.98,11.11,4.45,14.98,7.42,3.87,2.97,6.7,6.12,8.5,9.45,1.8,3.33,2.7,6.34,2.7,9.04,0,1.44-1.31,2.61-3.91,3.51-2.61.9-5.53,1.58-8.77,2.02-3.24.45-6.34.72-9.31.81-2.97.09-4.91.13-5.8.13-1.62,0-2.93-.49-3.91-1.48-.99-.99-1.67-2.02-2.02-3.11-.9-2.34-1.8-4.63-2.7-6.88-.9-2.25-1.94-4.27-3.1-6.07-1.17-1.8-2.75-3.24-4.72-4.32-1.98-1.08-4.5-1.62-7.56-1.62Z"></path><path class="cls-1" d="M937.82,1054.77v51.82c0,4.14,1.75,7.06,5.26,8.77,3.51,1.71,9.49,3.1,17.95,4.18,2.52.36,3.78,2.16,3.78,5.4,0,1.44-.18,3.06-.54,4.86-5.22-.36-11.74-.67-19.57-.94-7.83-.27-16.33-.41-25.51-.41-6.48,0-12.73.13-18.76.41-6.03.27-11.65.58-16.87.94-.36-.72-.54-1.53-.54-2.43v-2.16c0-3.06.99-4.77,2.97-5.13,3.78-.72,6.84-1.39,9.18-2.02,2.34-.63,4.14-1.35,5.4-2.16,1.26-.81,2.11-1.8,2.56-2.97.45-1.17.67-2.65.67-4.45v-135.23c0-3.6-1.31-6.21-3.91-7.83-2.61-1.62-7.6-2.88-14.98-3.78-.9-.36-1.62-.9-2.16-1.62-.54-.72-.81-1.98-.81-3.78v-2.43c0-.9.18-1.62.54-2.16,5.03.36,10.84.67,17.41.94,6.57.27,12.46.41,17.68.41h40.76c19.25,0,34.28,4.32,45.08,12.96,10.8,8.64,16.19,20.69,16.19,36.17,0,7.02-1.35,13.72-4.05,20.11-2.7,6.39-6.71,11.97-12.01,16.73-5.31,4.77-11.74,8.6-19.3,11.47-7.56,2.88-16.19,4.32-25.91,4.32h-20.51ZM945.92,1041.28c10.97,0,19.84-2.79,26.59-8.37,6.75-5.57,10.12-15.02,10.12-28.34,0-12.05-2.66-21.41-7.96-28.07-5.31-6.66-14.89-9.99-28.75-9.99h-8.1v74.77h8.1Z"></path><path class="cls-1" d="M1142.15,1120.09c2.7,0,4.05,2.25,4.05,6.75-2.34,1.62-5.26,2.83-8.77,3.64-3.51.81-7.06,1.22-10.66,1.22-8.1,0-14.3-1.98-18.62-5.94s-6.84-8.55-7.56-13.76c-3.6,7.2-8.41,12.28-14.44,15.25-6.03,2.97-13.09,4.45-21.19,4.45-3.78,0-7.96-.32-12.55-.95-4.59-.63-8.82-1.93-12.69-3.91-3.87-1.98-7.15-4.77-9.85-8.37-2.7-3.6-4.05-8.37-4.05-14.3,0-6.66,1.71-12.32,5.13-17,3.42-4.68,7.69-8.59,12.82-11.74,5.13-3.14,10.75-5.67,16.87-7.56,6.12-1.89,11.88-3.46,17.27-4.72,2.34-.54,4.77-1.12,7.29-1.75,2.52-.63,4.5-1.12,5.94-1.49,1.98-.54,3.24-1.3,3.78-2.29.54-.99.81-3.55.81-7.69,0-9.18-1.35-16.24-4.05-21.19-2.7-4.95-7.29-7.42-13.77-7.42-5.22,0-8.95,1.62-11.2,4.86-2.25,3.24-4.37,8.37-6.34,15.39-.54,1.98-2.12,3.47-4.72,4.45-2.61.99-5.9,2.02-9.85,3.1-2.16.54-4.37.99-6.61,1.35-2.25.36-4.28.54-6.07.54-1.08,0-1.8-.4-2.16-1.22-.36-.81-.54-2.38-.54-4.72,0-4.49,1.66-8.91,4.99-13.22,3.33-4.32,7.51-8.14,12.55-11.47,5.04-3.33,10.57-5.98,16.6-7.96,6.03-1.98,11.83-2.97,17.41-2.97,6.66,0,12.69.59,18.08,1.75,5.4,1.17,10.03,3.23,13.9,6.19,3.87,2.96,6.88,6.91,9.04,11.85,2.16,4.93,3.24,11.27,3.24,18.98v47.39c0,6.28.14,10.86.41,13.74.27,2.87.76,5.03,1.48,6.46,1.62,3.23,4.14,4.84,7.56,4.84,1.44,0,2.65-.09,3.64-.27.99-.18,1.93-.27,2.83-.27ZM1095.72,1069.62l-5.94,1.08c-4.14.72-8.01,1.76-11.61,3.11-3.6,1.35-6.71,3.15-9.31,5.4-2.61,2.25-4.68,5.04-6.21,8.37-1.53,3.33-2.29,7.34-2.29,12.01,0,7.02,1.12,11.92,3.37,14.71,2.25,2.79,5.53,4.18,9.85,4.18,6.84,0,12.24-2.52,16.19-7.56,3.96-5.03,5.94-12.05,5.94-21.05v-20.24Z"></path><path class="cls-1" d="M1242.02,1009.7c5.22,0,9.13,1.35,11.74,4.05,2.61,2.7,3.91,6.12,3.91,10.26,0,1.26-.23,2.34-.67,3.24-.45.9-1.44,1.89-2.97,2.97-1.53,1.08-3.64,2.3-6.34,3.65s-6.21,3.02-10.53,4.99c-2.88-2.88-5.53-4.81-7.96-5.8-2.43-.99-4.82-1.49-7.15-1.49-2.16,0-4.28.36-6.34,1.08-2.07.72-3.91,2.12-5.53,4.18-1.62,2.07-2.93,4.82-3.91,8.23-.99,3.42-1.48,7.83-1.48,13.23v50.2c0,3.6,1.44,6.25,4.32,7.96,2.88,1.71,8.55,3.29,17.01,4.72,1.98.36,2.97,1.53,2.97,3.51,0,2.52-.18,4.23-.54,5.13-2.34-.18-5.22-.32-8.64-.41-3.42-.09-7.02-.23-10.8-.4-3.78-.18-7.51-.32-11.2-.41-3.69-.09-6.98-.13-9.85-.13-6.84,0-12.69.13-17.54.41-4.86.27-9.45.58-13.77.94-.36-.9-.54-2.61-.54-5.13,0-1.98.99-3.14,2.97-3.51,5.76-1.08,9.72-2.25,11.88-3.51,2.16-1.26,3.24-3.24,3.24-5.94v-72.61c0-4.14-.77-7.46-2.29-9.99-1.53-2.52-5.8-4.23-12.82-5.13-2.52-.36-3.78-1.71-3.78-4.05v-2.16c0-.9.18-1.62.54-2.16,1.08,0,2.61-.04,4.59-.13,1.98-.09,4.14-.18,6.48-.27,2.34-.09,4.68-.22,7.02-.4,2.34-.18,4.41-.45,6.21-.81,3.96-.54,8.05-1.21,12.28-2.02,4.23-.81,7.06-1.21,8.5-1.21,2.52,0,3.78,1.35,3.78,4.05v14.57c6.3-6.83,12.32-11.83,18.08-14.98,5.76-3.15,12.15-4.72,19.16-4.72Z"></path><path class="cls-1" d="M1337.83,1110.92c1.8-1.08,3.33-1.62,4.59-1.62,1.8,0,3.69,1.89,5.67,5.67-7.56,6.84-14.17,11.34-19.84,13.5s-11.65,3.24-17.95,3.24c-3.6,0-7.06-.45-10.39-1.35-3.33-.9-6.34-2.52-9.04-4.86-2.7-2.34-4.86-5.54-6.48-9.58s-2.43-9.22-2.43-15.52v-74.23h-16.19v-6.75c0-.72.18-1.62.54-2.7.36-1.08,1.44-1.62,3.24-1.62,4.86,0,9.35-1.39,13.5-4.18,4.14-2.79,7.46-6.97,9.99-12.55,1.98-4.14,4.18-7.46,6.61-9.99,2.43-2.52,4.81-3.78,7.15-3.78h5.67v28.07h31.58c0,5.76-.4,9.45-1.22,11.07s-2.29,2.43-4.45,2.43h-25.91v66.67c0,5.4.18,9.68.54,12.82.36,3.15.94,5.53,1.75,7.15.81,1.62,1.89,2.66,3.24,3.1,1.35.45,2.92.67,4.72.67,1.98,0,4.32-.49,7.02-1.48,2.7-.99,5.4-2.38,8.1-4.18Z"></path><path class="cls-1" d="M1482.78,1112c0,2.52,1.08,4.45,3.24,5.8,2.16,1.35,6.12,2.48,11.88,3.37.72.18,1.39.5,2.02.95.63.45.94,1.31.94,2.56,0,1.08-.05,2.02-.14,2.84-.09.81-.23,1.57-.4,2.29-4.68-.36-9.36-.67-14.04-.94-4.68-.27-10.53-.41-17.54-.41-5.76,0-11.16.13-16.19.41-5.04.27-9.9.58-14.58.94-.36-.9-.54-2.61-.54-5.13,0-1.98.99-3.14,2.97-3.51,4.68-.9,7.83-1.98,9.45-3.24,1.62-1.25,2.43-3.24,2.43-5.94v-52.9c0-10.61-1.31-17.95-3.91-22-2.61-4.05-6.79-6.07-12.55-6.07-8.1,0-15.03,2.74-20.78,8.23-5.76,5.49-8.64,13.63-8.64,24.43v48.32c0,2.7.81,4.68,2.43,5.94,1.62,1.26,4.77,2.34,9.45,3.24,1.98.36,2.97,1.53,2.97,3.51,0,2.52-.18,4.23-.54,5.13-4.68-.36-9.54-.67-14.58-.94-5.04-.27-10.44-.41-16.19-.41-7.02,0-12.91.13-17.68.41-4.77.27-9.4.58-13.9.94-.18-.72-.32-1.48-.4-2.29-.09-.81-.13-1.76-.13-2.84,0-1.25.31-2.11.94-2.56.63-.45,1.3-.76,2.02-.95,5.76-1.08,9.72-2.25,11.88-3.51,2.16-1.26,3.24-3.24,3.24-5.94v-71.26c0-5.4-.99-9.54-2.97-12.42-1.98-2.88-6.12-4.59-12.41-5.13-2.34-.54-3.51-1.98-3.51-4.32v-2.02c0-.81.18-1.57.54-2.29,1.08,0,2.65-.04,4.72-.13,2.07-.09,4.27-.18,6.61-.27,2.34-.09,4.68-.22,7.02-.4,2.34-.18,4.5-.36,6.48-.54,4.5-.54,8.81-1.26,12.96-2.16,4.14-.9,6.92-1.35,8.37-1.35,2.88,0,4.32,1.35,4.32,4.05,0,1.98-.27,4.59-.81,7.83s-.81,7.74-.81,13.5c5.76-7.56,12.15-13.67,19.16-18.35,7.02-4.68,14.31-7.02,21.86-7.02,10.97,0,19.61,3.06,25.91,9.18,6.3,6.12,9.45,15.3,9.45,27.53v65.86Z"></path><path class="cls-1" d="M1618.04,1103.63c1.61-1.26,3.05-1.89,4.3-1.89.89,0,1.93.41,3.1,1.22,1.16.81,2.37,2.39,3.63,4.72-7.02,8.28-15.07,14.35-24.16,18.22-9.09,3.87-19.84,5.8-32.26,5.8-7.02,0-13.9-1.13-20.65-3.37-6.75-2.25-12.82-5.76-18.22-10.53-5.4-4.77-9.76-10.75-13.09-17.95-3.33-7.2-4.99-15.83-4.99-25.91s1.93-18.85,5.8-26.86c3.87-8,8.77-14.8,14.71-20.38,5.94-5.57,12.42-9.85,19.43-12.82,7.02-2.97,13.76-4.45,20.24-4.45,17.45,0,30.63,5.04,39.54,15.11,8.91,10.08,13.36,23.84,13.36,41.3,0,1.26-.63,1.89-1.89,1.89l-77.2,3.24c0,14.04,3.14,24.79,9.41,32.26,6.28,7.47,15.69,11.2,28.25,11.2,5.56,0,11.02-.9,16.41-2.7,5.38-1.8,10.13-4.49,14.26-8.1ZM1571.98,1021.3c-6.98,0-12.57,3.02-16.77,9.04-4.21,6.03-6.31,15.52-6.31,28.48l41.86-1.89c2.68-.18,4.02-1.35,4.02-3.51,0-3.42-.45-7.02-1.34-10.8-.89-3.78-2.28-7.24-4.16-10.39-1.88-3.14-4.25-5.76-7.11-7.83-2.86-2.07-6.26-3.11-10.2-3.11Z"></path><path class="cls-1" d="M1731.36,1009.7c5.22,0,9.13,1.35,11.74,4.05,2.61,2.7,3.91,6.12,3.91,10.26,0,1.26-.23,2.34-.67,3.24-.45.9-1.44,1.89-2.97,2.97-1.53,1.08-3.64,2.3-6.34,3.65s-6.21,3.02-10.53,4.99c-2.88-2.88-5.53-4.81-7.96-5.8-2.43-.99-4.82-1.49-7.15-1.49-2.16,0-4.28.36-6.34,1.08-2.07.72-3.91,2.12-5.53,4.18-1.62,2.07-2.93,4.82-3.91,8.23-.99,3.42-1.48,7.83-1.48,13.23v50.2c0,3.6,1.44,6.25,4.32,7.96,2.88,1.71,8.55,3.29,17.01,4.72,1.98.36,2.97,1.53,2.97,3.51,0,2.52-.18,4.23-.54,5.13-2.34-.18-5.22-.32-8.64-.41-3.42-.09-7.02-.23-10.8-.4-3.78-.18-7.51-.32-11.2-.41-3.69-.09-6.98-.13-9.85-.13-6.84,0-12.69.13-17.54.41-4.86.27-9.45.58-13.77.94-.36-.9-.54-2.61-.54-5.13,0-1.98.99-3.14,2.97-3.51,5.76-1.08,9.72-2.25,11.88-3.51,2.16-1.26,3.24-3.24,3.24-5.94v-72.61c0-4.14-.77-7.46-2.29-9.99-1.53-2.52-5.8-4.23-12.82-5.13-2.52-.36-3.78-1.71-3.78-4.05v-2.16c0-.9.18-1.62.54-2.16,1.08,0,2.61-.04,4.59-.13,1.98-.09,4.14-.18,6.48-.27,2.34-.09,4.68-.22,7.02-.4,2.34-.18,4.41-.45,6.21-.81,3.96-.54,8.05-1.21,12.28-2.02,4.23-.81,7.06-1.21,8.5-1.21,2.52,0,3.78,1.35,3.78,4.05v14.57c6.3-6.83,12.32-11.83,18.08-14.98,5.76-3.15,12.15-4.72,19.16-4.72Z"></path></g><g><g id="_2ocVzV.tif" data-name="2ocVzV.tif"><g><path class="cls-1" d="M1789.94,1478.42c10.81-.34,20.43-.65,30.77-.98.13,2.37.19,4.46.39,6.54.18,1.86-.8,4.03,1.81,5.81.97-.7,2.18-1.46,3.27-2.37,9.2-7.7,19.51-11.26,31.71-10.02,8.94.91,18.01.56,27.02.76,1.74.04,3.48,0,5.92,0,6.81,19.87,13.59,39.68,20.74,60.52,3.71-5.21,4.29-10.47,6.05-15.21,1.82-4.91,3.06-10.04,4.69-15.03,1.63-5.01,3.46-9.95,5.12-14.94,1.65-4.95,3.19-9.93,4.81-14.98h31.74c-16.91,46.07-33.6,91.56-50.32,137.11h-33.78c5.08-13.36,9.97-26.2,14.97-39.35-11.82-31.32-23.72-62.86-35.62-94.4-2.03,4.22-1.38,8.46-1.5,12.61-.12,4.13-.03,8.26-.03,13.02-12.93-1.78-25.3-3.13-36.74,4.33v66.51h-31.69c.82-33.22-.19-66.29.68-99.94Z"></path><path class="cls-1" d="M1198.2,1491.5c1.72-1.38,3.33-2.85,5.12-4.05,4.71-3.17,9.27-6.69,14.32-9.22,8.46-4.24,17.53-3.84,26.25-.97,8.85,2.91,13.67,10.02,16.17,18.62,1.09,3.76,1.68,7.78,1.71,11.7.17,22.9.1,45.79.1,68.69,0,.62-.21,1.24-.37,2.08h-31.32c0-3.13,0-5.94,0-8.76,0-17.83.08-35.67,0-53.5-.04-7.86-.96-9.41-7.21-14.49-10.21-1.27-11.52-.97-21.6,5.29v71.52h-31.4c-.14-1.96-.39-3.83-.4-5.7-.06-18.49-.01-36.99-.16-55.48-.02-3.01-.44-6.17-1.41-9-1.45-4.22-4.57-6.66-9.28-7.2-6.84-.79-12.34,1.97-18,5.87v71.79c-10.62.11-20.83.18-31.32-.2v-100.73h30.94c.27,3,.52,5.74.84,9.28,1.85-1.06,3.16-1.65,4.29-2.48,6.25-4.62,12.77-8.4,20.78-9.27,13.21-1.42,23.9,2.03,30.43,14.48.29.56.86.98,1.54,1.74Z"></path><path class="cls-1" d="M1555.02,1540.11c6.1-20.46,12.19-40.92,18.36-61.63h27.55c5.85,20.7,11.78,41.65,17.7,62.6.37,0,.73-.02,1.1-.02,4.99-20.84,9.97-41.68,14.99-62.65h31.37c-4.08,16.81-9.01,33.21-13.62,49.69-4.67,16.68-9.79,33.24-14.69,49.77-4.93,1.11-25.75,1.33-33.96.34-5.65-20.22-11.34-40.6-17.03-60.98-4.96,9.68-6.83,20.02-9.8,30.01-3,10.06-5.96,20.14-9.06,30.63-5.05,1.48-10.55.45-15.96.64-5.49.19-11,.04-16.94.04-10.75-32.72-19.53-66.02-28.83-99.16,4.4-1.5,20.79-1.86,31.99-.7,5.11,20.36,9.66,41.1,15.25,61.55.53-.04,1.05-.08,1.58-.12Z"></path><path class="cls-1" d="M1317.69,1575.13c-2.39,4.78-.98,9.2-1.23,13.45-.27,4.61-.13,9.24-.15,13.85-.02,4.35,0,8.69,0,13.37h-31.03c-.18-1.33-.54-2.77-.54-4.21-.03-38.93-.05-77.87.03-116.8.01-5.23.62-10.47.97-15.98,5.04-1.36,10.08-.47,15.03-.64,4.83-.17,9.67-.04,14.25-.04,2.63,2.17-.31,6.14,3.31,7.8,2.84-1.66,5.97-3.2,8.78-5.18,8.74-6.19,18.73-6.24,28.42-4.72,8.41,1.32,15.07,6.58,19.62,14.12,5.34,8.84,7.33,18.65,8.57,28.67,1.11,9,.79,18.08-1.85,26.7-3.56,11.61-8.88,22.4-19.7,29.24-11.14,7.05-23.03,7.73-35.36,3.79-2.9-.93-5.71-2.14-9.12-3.43ZM1316.73,1505.24v49.56c4.84,2.45,8.07,3.06,14.24,2.76,8.85-.44,15.07-4.86,17.97-13.08,4.06-11.53,3.8-23.33.11-34.93-2.12-6.68-9.77-11.57-16.32-10.64-5.66.8-11.19,2.31-16,6.34Z"></path><path class="cls-1" d="M998.13,1445.4h88.9c1.79,3.58.59,7.57.79,11.4.21,3.92.05,7.87.05,12.15-6.58,1.2-12.9.44-19.18.57-6.16.13-12.32.03-18.49.03-6.32,0-12.64,0-19.33,0v23.3c17.41,1.4,34.65,1.09,52.16,1.22v24.62c-5.83.73-11.51.27-17.15.35-5.72.08-11.44.02-17.17.02h-17.01c-1.59,4.94-1.69,28.44-.1,34.57h56.14v24.75h-89.61v-132.98Z"></path><path class="cls-1" d="M1773.12,1534.22h-68.09c-.77,7.34,2.1,12.7,6.75,17.31,4.07,4.03,9.2,5.82,14.8,6.49,14.04,1.69,27-1.08,38.77-9.1,1.52-1.03,3.42-1.51,5.51-2.39,1.62,4.99.71,9.35.8,13.63.09,4.16.02,8.33.02,13.14-3.32,1.31-6.67,2.9-10.17,3.98-18.09,5.59-36.55,6.01-54.61.97-19.44-5.43-31.54-18.96-34-41.44-.72-6.62-.23-13.12.46-19.64,1.14-10.88,6.15-20.11,13.42-27.94,4.91-5.29,11.21-8.75,18.19-11.2,6.55-2.29,13.39-3.24,19.98-3.25,11.1,0,22.21,1.24,31.83,8.28,6.71,4.91,10.77,11.48,13.53,18.88,3.85,10.29,2.75,21.1,2.82,32.29ZM1740.99,1514.87c1.35-7.82-1.5-14.6-7.51-18.36-5.02-3.14-16.44-2.48-20.69,1.08-6.6,5.53-9.15,11.33-7.16,17.28h35.37Z"></path><path class="cls-1" d="M1498.33,1529.04c.36,9.39-1.86,18.25-5.91,26.7-5.93,12.34-15.35,20.16-28.82,23.59-11.35,2.89-22.61,3.28-33.79.41-19.15-4.91-30.94-17.13-34.72-36.79-2.95-15.3-1.57-30.06,5.38-44.08,5.53-11.16,14.69-18.29,26.53-21.6,12.43-3.48,25.12-3.41,37.54,0,10.87,2.98,20.26,8.93,25.67,19.01,5.4,10.06,8.73,21,8.13,32.77ZM1465.68,1528.16c0-1.2.2-3.2-.04-5.16-.72-6.07-1.07-12.19-4.17-17.78-5.43-9.78-19.1-9.93-24.82-6.01-5.06,3.47-8.34,8.38-9.25,14.61-1.37,9.4-1.98,18.81-.02,28.21,1.04,4.98,2.49,9.99,6.5,13.35,9.34,7.82,24.41,4.85,28.86-7.02,2.35-6.28,3.18-12.76,2.93-20.2Z"></path></g></g><g><g><g><rect class="cls-8" x="774.24" y="1397.69" width="56.7" height="42.77" rx="12.39" ry="12.39"></rect><circle class="cls-8" cx="802.59" cy="1368.92" r="22.13"></circle></g><g><rect class="cls-2" x="774.24" y="1578.57" width="56.7" height="42.77" rx="12.39" ry="12.39" transform="translate(1605.18 3199.91) rotate(180)"></rect><circle class="cls-2" cx="802.59" cy="1650.11" r="22.13"></circle></g><g><rect class="cls-5" x="852.6" y="1442.98" width="56.7" height="42.77" rx="12.39" ry="12.39" transform="translate(1710.03 -29.98) rotate(60.05)"></rect><circle class="cls-5" cx="924.41" cy="1439.33" r="22.13"></circle></g><g><rect class="cls-7" x="695.88" y="1533.28" width="56.7" height="42.77" rx="12.39" ry="12.39" transform="translate(-261.33 2958.29) rotate(-119.95)"></rect><circle class="cls-7" cx="680.77" cy="1579.7" r="22.13"></circle></g><g><rect class="cls-6" x="852.67" y="1533.15" width="56.7" height="42.77" rx="12.39" ry="12.39" transform="translate(2667.83 1564.33) rotate(119.86)"></rect><circle class="cls-6" cx="924.52" cy="1579.51" r="22.13"></circle></g><g><rect class="cls-3" x="695.8" y="1443.11" width="56.7" height="42.77" rx="12.39" ry="12.39" transform="translate(-906.47 1363.48) rotate(-60.14)"></rect><circle class="cls-3" cx="680.65" cy="1439.53" r="22.13"></circle></g></g><path class="cls-1" d="M802.59,1449.02c33.36,0,60.5,27.14,60.5,60.5s-27.14,60.5-60.5,60.5-60.5-27.14-60.5-60.5,27.14-60.5,60.5-60.5M802.59,1422.1c-48.28,0-87.42,39.14-87.42,87.42s39.14,87.42,87.42,87.42,87.42-39.14,87.42-87.42-39.14-87.42-87.42-87.42h0Z"></path></g></g></g></g></svg>