<svg xmlns="http://www.w3.org/2000/svg" viewBox="0 0 485.6 88.1"><defs><style>.b9fc104b-fe9b-4b7a-8b6c-505944bb08ac{fill:#fbbd04;}.fce7c2b2-c967-49cd-a5c7-45293276e2d8{fill:#438edc;}.ed341a6a-16ed-42ec-bcb2-d2d1c5c4ecaa{fill:#34a952;}.b21448f1-8e82-4dc4-ac9a-a7ee39f153ce{fill:#7f7f7f;}</style></defs><g id="b5c2e2c0-d5b3-4899-9acc-b110106b7ba6" data-name="Layer 2"><g id="ade67949-25f5-40f4-ab8a-a1a39a56de1a" data-name="Layer 1"><rect class="b9fc104b-fe9b-4b7a-8b6c-505944bb08ac" x="14.4" y="-3.7" width="29.1" height="86.69" rx="14.6" transform="translate(23.7 -9.2) rotate(30)"></rect><rect class="fce7c2b2-c967-49cd-a5c7-45293276e2d8" x="43.3" y="-3.9" width="29.1" height="86.69" rx="14.6" transform="translate(-12 34.2) rotate(-30)"></rect><circle class="ed341a6a-16ed-42ec-bcb2-d2d1c5c4ecaa" cx="14.8" cy="64.4" r="14.8"></circle><path id="af130690-e034-4990-af2c-561cfd3398e2" data-name="path4243" class="b21448f1-8e82-4dc4-ac9a-a7ee39f153ce" d="M290.3,63.1c4.5-1.3,7.1-5.1,7.1-10.4a10.9,10.9,0,0,0-2.6-7.6c-5.2-5.5-13.9-3.1-16.1,4.4-.9,3.1-.9,3.3,0,6.6s3.5,6.2,5.6,6.6l2,.6c1.3.6,1.4.6,4-.2Zm-8.1,24.3a20.4,20.4,0,0,1-11.1-9.5c-.6-1.3-.3-1.5,3.9-3.2s3.9-1.2,3.9-.5,2.8,4,4.7,4.9c3.9,1.8,8.9.7,11.3-2.4,1.2-1.5,2.1-5.4,2-7.5V68l-1.9,1.3a14.7,14.7,0,0,1-10.4,1.9,16.7,16.7,0,0,1-9.7-5.1,17.5,17.5,0,0,1-5.1-10c-1.9-8.9,3.8-18.5,12.7-21.4,4.5-1.4,10.8-.5,13.5,2l1,1V36.4l.2-1.3h8.1V53.2c.2,19,0,21.6-2,25.6A17,17,0,0,1,293,87.4,20.8,20.8,0,0,1,282.2,87.4Z"></path><path id="eb85e4a4-ee61-44db-8621-9e4662924ea2" data-name="path4239" class="b21448f1-8e82-4dc4-ac9a-a7ee39f153ce" d="M213,61.7c3.5-2.5,5.2-7.7,4-12.3s-5.4-7.3-9.1-7.3c-6,0-10.3,4.4-10.3,10.5s3,9.3,6.9,10.3A12.2,12.2,0,0,0,213,61.7Zm-9,9.5c-7.2-1.3-12.4-6-14.8-13.3a20.2,20.2,0,0,1,.8-12.6c3.4-7.2,9.7-11.3,17.5-11.3,14.7,0,23.4,15,16.5,28.3-2,3.9-7.6,7.9-12.1,8.8S207.4,71.8,204,71.2Z"></path><path id="a60a859f-0ed4-4a3d-8c1f-3def90baaab9" data-name="path4235" class="b21448f1-8e82-4dc4-ac9a-a7ee39f153ce" d="M331.7,51c1.7-.8,1.1-.6,1.4-.6a29.7,29.7,0,0,0,3.8-1.5,14.9,14.9,0,0,1,3.6-1.4c.4,0-1.9,1-1.9.8a25.7,25.7,0,0,1,5.1-2.3c2.4-.9,2.5-.9,1.7-1.8a8.1,8.1,0,0,0-9.9-1,10.6,10.6,0,0,0-4.9,6.5C330.3,51.7,330.1,51.7,331.7,51Zm4.8,20.2c-7.2-1.7-11.8-6.2-14.2-13.7-.7-2-.6-7.9,0-9.9,2.8-8.6,9.1-13.6,17-13.6a15.5,15.5,0,0,1,11.5,4.7c2.4,2.3,5.3,7.3,5.3,8.9s-.5,1.3-6.1,3.5l-10.1,4.2-2.1.8-2.9,1.3-2.7,1c-1,.4,2.7,3.9,4.7,4.4,4.1,1.1,7.6.4,10.4-2.2a8.5,8.5,0,0,1,2.4-1.8c.8,0,6.4,3.8,6.4,4.3s-3.9,4.6-6.5,6-8,2.9-9.7,2.8l-3.4-.7Z"></path><path id="b2823f01-ae25-4e71-96c4-9b27dd9c51fb" data-name="path4233" class="b21448f1-8e82-4dc4-ac9a-a7ee39f153ce" d="M154,71a28,28,0,0,1-15.5-8.5,30.1,30.1,0,0,1-7.2-11.7c-1.2-3.1-1.2-13.4,0-16.6,3.7-10,10.7-16.7,20.6-19.7,3.2-1,13.2-.8,16.1.2s9.6,4.6,11,6.4.3,1.1-2.2,3.6a22,22,0,0,1-3.2,2.9l-1.5-1.1c-3.8-3.2-11-4.9-16.4-3.9a20.4,20.4,0,0,0-14.3,10.9c-1.4,2.9-2.4,3.1-2.4,9.1s1,6.2,2.2,8.7a27.8,27.8,0,0,0,3.8,5.3,20.2,20.2,0,0,0,19.9,5.6c4.1-1.1,5.8-2,8.3-4.4a13.7,13.7,0,0,0,4.2-7.7l.3-1.7H159.4V39.8h26.5a6.8,6.8,0,0,1,.7,2.5c1,5-.8,12.6-4.4,18s-6,6.9-12.7,9.8c-2.7,1.2-10.8,1.7-15.5.9Z"></path><path id="b2e80b5c-f103-4fdb-9da4-969d38f2de2f" data-name="path4229" class="b21448f1-8e82-4dc4-ac9a-a7ee39f153ce" d="M251,62.8c2.1-.5,4.9-3.2,6-5.6a12.3,12.3,0,0,0-.3-9.9c-2.4-2.9-3.6-3.9-5.3-4.5A9.7,9.7,0,0,0,241,44.9c-5.7,5.5-3.5,15.5,3.9,18C247,63.6,247.7,63.6,251,62.8ZM243.2,71a19,19,0,0,1-12.1-9.2,18.9,18.9,0,0,1,2.5-21.6,19.4,19.4,0,0,1,28.5,0c6.6,7.2,5.9,20.3-1.4,26.5a17.4,17.4,0,0,1-11.4,4.5,35.9,35.9,0,0,1-6.1-.2Z"></path><path id="b272fdb1-b7b4-4981-a33f-a860d27569cc" data-name="path4213" class="b21448f1-8e82-4dc4-ac9a-a7ee39f153ce" d="M310.1,43V15.4h4.4l4.4.2V70.3l-4.4.2h-4.4V43Z"></path><path id="f669870e-ae82-4201-b1fd-77b68d2d163e" data-name="path4203" class="b21448f1-8e82-4dc4-ac9a-a7ee39f153ce" d="M406.1,47.7c-.2-.5-2-5.6-4.2-11.4s-4-10.9-4.2-11.1-3.9,9.1-4.2,11a4.2,4.2,0,0,1-.4,1.2c-.4.6-4,10.2-4,10.6s3.9.4,8.7.4c7.9,0,8.6,0,8.3-.7ZM373.3,69.4c0-.2,1.9-5.3,4.1-11.3s5-13.1,6.1-16c2.8-7.7,7.4-19.7,8.6-22.9a19.6,19.6,0,0,0,1.1-3.3c0-.3,1.5-.5,4.2-.5s4.3.2,4.6.8l17.4,46.2,2,5.2a12.4,12.4,0,0,1,.7,1.9,21.3,21.3,0,0,1-4,.2H414l-.9-2.6c-.6-1.5-1.7-4.7-2.6-7.3l-1.6-4.6H386.5l-.7,1.9-2.7,7.3-1.9,5.3h-3.9C374.9,69.9,373.3,69.7,373.3,69.4Zm97.5,1.1a12.8,12.8,0,0,1-10-7c-.8-1.5-.6-1.8,1.4-2.6s2.1-1,2.2-1.3.6,0,1.2.6c3.8,4.7,4.6,5.1,8.8,4.9,2.5-.2,2.9-.4,4-1.8,2.5-3,.7-4.9-6.2-6.7s-11-4.7-11-9.2,1.4-5.8,4.9-7.6,3.3-1.5,7.3-1.5,4.5.1,6.7,1.2,5.6,5,5.2,6.1-.4.5-.6.3a6.9,6.9,0,0,0-2.6.7c-1.4.7-2.2.8-2.3.5a8.7,8.7,0,0,0-3.4-3.1c-1.8-.9-5.8-.5-7.4.7a3.1,3.1,0,0,0-1.4,2.3c-.2,2,1.3,2.9,7,4.3s8.6,2.7,10.3,6.1a10,10,0,0,1-.8,8.9C481.3,69.8,476.9,71.2,470.8,70.5ZM445,63.6a10.7,10.7,0,0,0,3.1-3.5,9,9,0,0,0,1.2-5.5c0-4-.9-6.3-3.4-8.6s-8.3-3.3-12,.1a9.5,9.5,0,0,0-3.3,7.7c-.1,5.1,1.9,8.7,5.7,10.5a9.6,9.6,0,0,0,8.7-.7Zm-8.4,6.9c-4.5-.7-8.5-4-10.8-8.9-1-2.2-1.2-3.2-1.2-6.8,0-5.7,1.3-9.3,4.3-12.3s5.8-4.2,10.4-4.2,6.8.9,9,3.3l1.1,1.3-.2-9L449,25h3.1c1.8-.1,3.2,0,3.3.3s.1,10.3,0,22.5V69.8h-5.9l.2-2,.2-1.9L448,67.4c-3.2,2.8-6.8,3.8-11.4,3.1Z"></path></g></g></svg>