<svg xmlns="http://www.w3.org/2000/svg" viewBox="0 0 483.2 78.9"><defs><style>.a7e62ea5-d54a-4d68-9c52-02ed464ff5d9{fill:#003873;}.f6bbd6bc-5c6e-42c8-99d7-f73ba4a6fd89{fill:#0081ff;}</style></defs><g id="f2e0e7d4-5700-4fb3-b3a8-1af0358ce771" data-name="Layer 2"><g id="b36d23e1-2f65-4c2d-8094-c8a03e4e51b9" data-name="Layer 1"><path class="a7e62ea5-d54a-4d68-9c52-02ed464ff5d9" d="M151.5,78.1V52.6H123.4V78.1H112.2V16.7h11.2V42.2h28.1V16.7h11.1V78.2Zm57.8-3.2c-3.5,2.5-8.7,3.9-15.6,3.9-8.6,0-15.7-2.5-19.8-8.6-2.4-3.3-3.8-7.9-3.8-13.7s1.4-9.9,4-13.3c4-5.5,10.8-8.8,19.6-8.8s15.6,3.3,19.2,8.5,4.3,11,3.8,17.5H180.4a9.8,9.8,0,0,0,2.9,6.6c2,2.1,5.9,3.5,10.4,3.5a18.2,18.2,0,0,0,8.9-2c2.3-1.2,3.4-3,3.5-4h10.3a17.6,17.6,0,0,1-7.1,10.4Zm-5.4-28.4c-2.1-1.9-5.2-3.6-10.2-3.6s-8.1,1.4-10.3,3.4a10.4,10.4,0,0,0-3.2,6.3h26.1A8.3,8.3,0,0,0,203.9,46.5Zm20.8,31.6c-.2-.1-.3-.6-.3-3.1V20.9c0-2.1-.1-3.9-.1-4.6h10.4a25.6,25.6,0,0,1,.3,3.9v54a14.9,14.9,0,0,0,.2,3.9Zm19.2-47.7V20h11V30.4Zm11.2,47.7H244.7c-.4-.1-.5-1-.5-4.2V35.4h10.5V73.7C254.7,76.8,254.8,77.9,255.1,78.1Zm40.2,0-.2-6c-3.1,5-9.5,6.7-15.8,6.7-9.7,0-15.9-3.8-15.9-13.6,0-25.9-.1-29.6-.4-29.8h10.6c.2,0,.3,1.5.3,27,0,5.9,4,8,9.5,8,7,0,11.3-3.4,11.3-8.7V35.4h10.4V71.2q0,3.5.3,6.9Zm76-25.9c0-4.3-1.7-8.1-8.8-8.1-5.2,0-9.4,2.9-9.4,8.3V78.1h-10V51.6c0-4.6-3.2-7.5-8.5-7.5s-9.8,4.1-9.8,8.5V78.1H314.3V35.4h10.3v6.8c1.8-4.8,7.6-7.7,14-7.7s11.4,2.6,13.3,7.8c1.7-5.2,7.2-7.8,14.2-7.8,10.9,0,14.7,5.9,14.7,13.9,0,18,.1,29.4.4,29.7h-9.4C371.3,78.1,371.3,67.3,371.3,52.2Zm42.9,25.9V29.2l-15.1,2.1V22.6c12.8-1.9,16.4-3.9,17.5-6.2h8.6V78.1Zm68-45.9c.9,4.3,1,9.3,1,15.2s-.5,12-1.5,15.5c-2.7,11-10.5,16-23.3,16S438,74.3,435.1,62.8c-1.2-4.2-1.5-10.5-1.5-15.4s-.1-9.8,1.1-15.1c2.1-10.1,9.9-16.3,23.8-16.3S480,22.9,482.2,32.2Zm-11.3,2.5c-1-5.6-5.2-9-12.4-9s-11.8,3.4-12.7,9a124.6,124.6,0,0,0-.7,12.7,83.8,83.8,0,0,0,1,13.2c1.2,6,5.5,8.8,12.4,8.8s11-3.1,12.2-8.8a97.7,97.7,0,0,0,.9-13.2A106.9,106.9,0,0,0,470.9,34.7Z"></path><path class="f6bbd6bc-5c6e-42c8-99d7-f73ba4a6fd89" d="M0,16.7V42.2H19.4V27.3ZM30.6,27.3V42.2H50.1V16.7ZM61.3,10.6V42.2H80.7V0Z"></path><path class="a7e62ea5-d54a-4d68-9c52-02ed464ff5d9" d="M0,52.6H19.4V78.1H0Zm30.6,0H50.1V78.1H30.6Zm30.7,0H80.7V78.1H61.3Z"></path></g></g></svg>