<svg xmlns="http://www.w3.org/2000/svg" id="Layer_2" data-name="Layer 2" viewBox="0 0 2338.56 141.82"><defs><style> .cls-1 { fill: #005128; } .cls-1, .cls-2, .cls-3, .cls-4 { stroke-width: 0px; } .cls-2 { fill: #00b67a; } .cls-3 { fill: #000; } .cls-4 { fill: #fff; } </style></defs><g id="Layer_1-2" data-name="Layer 1"><g><g><path class="cls-3" d="M1940.73,46.95h54.6v10.16h-21.5v57.3h-11.78v-57.3h-21.41l.09-10.16ZM1992.99,65.57h10.07v9.44h.18c.36-1.35.99-2.61,1.89-3.87s1.98-2.43,3.33-3.42c1.26-1.08,2.7-1.89,4.32-2.52,1.53-.63,3.15-.99,4.77-.99,1.26,0,2.16.09,2.61.09.45.09.99.18,1.44.18v10.34c-.72-.18-1.53-.27-2.34-.36s-1.53-.18-2.34-.18c-1.8,0-3.51.36-5.13,1.08s-2.97,1.8-4.23,3.15c-1.17,1.44-2.16,3.15-2.88,5.22s-1.08,4.5-1.08,7.2v23.21h-10.79l.18-48.57ZM2071.07,114.41h-10.61v-6.84h-.18c-1.35,2.52-3.33,4.41-5.94,5.94s-5.31,2.25-8.01,2.25c-6.39,0-11.06-1.53-13.94-4.77-2.88-3.15-4.32-8.01-4.32-14.39v-31.03h10.79v29.95c0,4.32.81,7.38,2.52,9.08,1.62,1.8,3.96,2.7,6.93,2.7,2.25,0,4.14-.36,5.67-1.08s2.79-1.62,3.69-2.79c.99-1.17,1.62-2.61,2.07-4.23s.63-3.42.63-5.31v-28.33h10.79v48.84h-.09ZM2089.41,98.76c.36,3.15,1.53,5.31,3.6,6.66,2.07,1.26,4.59,1.89,7.47,1.89.99,0,2.16-.09,3.42-.27s2.52-.45,3.6-.9c1.17-.45,2.07-1.08,2.79-1.98s1.08-1.98.99-3.33-.54-2.52-1.53-3.42-2.16-1.53-3.6-2.16c-1.44-.54-3.15-.99-5.04-1.35s-3.78-.81-5.76-1.26-3.96-.99-5.85-1.62-3.51-1.44-5.04-2.61c-1.44-1.08-2.7-2.43-3.51-4.14-.9-1.71-1.35-3.69-1.35-6.21,0-2.7.63-4.86,1.98-6.66,1.26-1.8,2.97-3.24,4.95-4.32s4.23-1.89,6.66-2.34,4.77-.63,6.93-.63c2.52,0,4.95.27,7.2.81s4.41,1.35,6.21,2.61c1.89,1.17,3.42,2.79,4.59,4.68,1.26,1.89,1.98,4.23,2.34,6.93h-11.24c-.54-2.61-1.71-4.32-3.51-5.22-1.89-.9-3.96-1.35-6.39-1.35-.72,0-1.71.09-2.7.18-1.08.18-1.98.36-2.97.72-.9.36-1.71.9-2.34,1.53s-.99,1.53-.99,2.61c0,1.35.45,2.34,1.35,3.15s2.07,1.44,3.6,2.07c1.44.54,3.15.99,5.04,1.35s3.87.81,5.85,1.26,3.87.99,5.76,1.62,3.6,1.44,5.04,2.61c1.44,1.08,2.7,2.43,3.6,4.05s1.35,3.69,1.35,6.03c0,2.88-.63,5.31-1.98,7.38-1.35,1.98-3.06,3.69-5.13,4.95s-4.5,2.16-7.02,2.79c-2.61.54-5.13.9-7.65.9-3.06,0-5.94-.36-8.54-1.08s-4.95-1.8-6.84-3.15c-1.89-1.44-3.42-3.15-4.5-5.31-1.08-2.07-1.71-4.59-1.8-7.56h10.88v.09h.09ZM2124.94,65.57h8.19v-14.75h10.79v14.66h9.71v8.01h-9.71v26.08c0,1.17.09,2.07.18,2.97.09.81.36,1.53.63,2.07.36.54.9.99,1.53,1.26.72.27,1.62.45,2.88.45.72,0,1.53,0,2.25-.09s1.53-.18,2.25-.36v8.36c-1.17.18-2.34.27-3.51.36-1.17.18-2.25.18-3.51.18-2.88,0-5.13-.27-6.84-.81s-3.06-1.35-4.05-2.34c-.99-1.08-1.62-2.34-1.98-3.87s-.54-3.42-.63-5.4v-28.78h-8.19v-8.19.18ZM2161.19,65.57h10.16v6.66h.18c1.53-2.88,3.6-4.86,6.3-6.12s5.58-1.89,8.81-1.89c3.87,0,7.2.63,10.07,2.07,2.88,1.35,5.22,3.15,7.11,5.58,1.89,2.34,3.33,5.13,4.23,8.27.9,3.15,1.44,6.57,1.44,10.07s-.45,6.48-1.26,9.53c-.9,3.06-2.16,5.85-3.87,8.19s-3.87,4.23-6.57,5.67-5.76,2.16-9.35,2.16c-1.53,0-3.15-.18-4.68-.45-1.53-.27-3.06-.72-4.5-1.35s-2.79-1.44-3.96-2.43c-1.26-.99-2.25-2.16-3.06-3.42h-.18v24.38h-10.79v-66.92h-.09ZM2198.88,90.04c0-2.16-.27-4.32-.9-6.39-.54-2.07-1.44-3.87-2.61-5.49s-2.61-2.88-4.23-3.87c-1.71-.99-3.69-1.44-5.85-1.44-4.5,0-7.92,1.53-10.25,4.68-2.25,3.15-3.42,7.38-3.42,12.59,0,2.52.27,4.77.9,6.84s1.44,3.87,2.7,5.4c1.17,1.53,2.61,2.7,4.32,3.6s3.6,1.35,5.85,1.35c2.52,0,4.5-.54,6.21-1.53s3.06-2.34,4.23-3.87c1.08-1.62,1.89-3.42,2.34-5.49.45-2.16.72-4.23.72-6.39ZM2217.86,46.95h10.79v10.16h-10.79v-10.16ZM2217.86,65.57h10.79v48.84h-10.79v-48.84ZM2238.27,46.95h10.79v67.46h-10.79V46.95ZM2281.99,115.76c-3.87,0-7.38-.63-10.43-1.98-3.06-1.35-5.58-3.06-7.74-5.31-2.07-2.25-3.69-5.04-4.77-8.19s-1.71-6.66-1.71-10.34.54-7.11,1.71-10.25c1.08-3.15,2.7-5.85,4.77-8.19,2.07-2.25,4.68-4.05,7.74-5.31,3.06-1.26,6.57-1.98,10.43-1.98s7.38.63,10.43,1.98c3.06,1.26,5.58,3.06,7.74,5.31,2.07,2.25,3.69,5.04,4.77,8.19,1.08,3.15,1.71,6.57,1.71,10.25s-.54,7.2-1.71,10.34-2.7,5.85-4.77,8.19c-2.07,2.25-4.68,4.05-7.74,5.31s-6.48,1.98-10.43,1.98ZM2281.99,107.21c2.34,0,4.5-.54,6.21-1.53,1.8-.99,3.15-2.34,4.32-3.96s1.98-3.51,2.52-5.49c.54-2.07.81-4.14.81-6.3s-.27-4.14-.81-6.21-1.35-3.87-2.52-5.49-2.61-2.88-4.32-3.87c-1.8-.99-3.87-1.53-6.21-1.53s-4.5.54-6.21,1.53c-1.8.99-3.15,2.34-4.32,3.87-1.17,1.62-1.98,3.42-2.52,5.49-.54,2.07-.81,4.14-.81,6.21s.27,4.23.81,6.3,1.35,3.87,2.52,5.49,2.61,2.97,4.32,3.96c1.8,1.08,3.87,1.53,6.21,1.53ZM2309.87,65.57h8.18v-14.75h10.79v14.66h9.71v8.01h-9.71v26.08c0,1.17.09,2.07.18,2.97.09.81.36,1.53.63,2.07.36.54.9.99,1.53,1.26.72.27,1.62.45,2.88.45.72,0,1.53,0,2.25-.09s1.53-.18,2.25-.36v8.36c-1.17.18-2.34.27-3.51.36-1.17.18-2.25.18-3.51.18-2.88,0-5.13-.27-6.84-.81s-3.06-1.35-4.05-2.34c-.99-1.08-1.62-2.34-1.98-3.87-.36-1.53-.54-3.42-.63-5.4v-28.78h-8.18v-8.19.18Z"></path><path class="cls-2" d="M1928.14,46.95h-49.38l-15.2-46.95-15.29,46.95-49.38-.09,39.94,29.05-15.29,46.95,39.94-29.05,39.94,29.05-15.2-46.95,39.94-28.96Z"></path><path class="cls-1" d="M1891.62,86.53l-3.42-10.61-24.64,17.9,28.06-7.29Z"></path></g><g><g><rect class="cls-2" x="469.46" y="14.56" width="127.26" height="127.26"></rect><path class="cls-4" d="M553.48,96.38h0s-20.36,5.3-20.36,5.3l17.88-12.98,28.97-21.01h-35.82l-11.03-34.06-11.09,34.06-35.82-.07,28.97,21.08-11.09,34.06,28.97-21.08,28.97,21.08-8.54-26.38s0,0-.01,0Z"></path></g><g><rect class="cls-2" x="610.69" y="14.56" width="127.26" height="127.26"></rect><path class="cls-4" d="M694.71,96.38h0s-20.36,5.3-20.36,5.3l17.88-12.98,28.97-21.01h-35.82l-11.03-34.06-11.09,34.06-35.82-.07,28.97,21.08-11.09,34.06,28.97-21.08,28.97,21.08-8.54-26.38s0,0-.01,0Z"></path></g><g><rect class="cls-2" x="751.92" y="14.56" width="127.26" height="127.26"></rect><path class="cls-4" d="M835.94,96.38h0s-20.36,5.3-20.36,5.3l17.88-12.98,28.97-21.01h-35.82l-11.03-34.06-11.09,34.06-35.82-.07,28.97,21.08-11.09,34.06,28.97-21.08,28.97,21.08-8.54-26.38s0,0-.01,0Z"></path></g><g><rect class="cls-2" x="893.16" y="14.56" width="127.26" height="127.26"></rect><path class="cls-4" d="M977.17,96.38h0s-20.36,5.3-20.36,5.3l17.88-12.98,28.97-21.01h-35.82l-11.03-34.06-11.09,34.06-35.82-.07,28.97,21.08-11.09,34.06,28.97-21.08,28.97,21.08-8.54-26.38s0,0-.01,0Z"></path></g><g><rect class="cls-2" x="1034.39" y="14.56" width="127.26" height="127.26"></rect><path class="cls-4" d="M1118.4,96.38h0s-20.36,5.3-20.36,5.3l17.88-12.98,28.97-21.01h-35.82l-11.03-34.06-11.09,34.06-35.82-.07,28.97,21.08-11.09,34.06,28.97-21.08,28.97,21.08-8.54-26.38s0,0-.01,0Z"></path></g></g><g><path class="cls-3" d="M34.56,60.1H10.26v18.36h21.6v8.37H10.26v19.17h24.3v8.37H0v-62.64h34.56v8.37Z"></path><path class="cls-3" d="M62.1,97.54l-10.08,16.83h-10.71l16.02-24.39-16.02-25.2h11.61l10.71,16.83,10.08-16.83h10.71l-16.02,24.48,16.02,25.11h-11.61l-10.71-16.83Z"></path><path class="cls-3" d="M112.95,63.97c12.15,0,20.07,6.03,22.86,16.47h-11.07c-1.71-4.77-5.67-7.83-11.79-7.83-8.28,0-13.77,6.12-13.77,16.92s5.49,17.01,13.77,17.01c6.12,0,9.9-2.7,11.79-7.83h11.07c-2.79,9.72-10.71,16.47-22.86,16.47-14.22,0-24.3-10.08-24.3-25.65s10.08-25.56,24.3-25.56Z"></path><path class="cls-3" d="M167.4,115.17c-14.22,0-24.75-10.08-24.75-25.65s10.08-25.56,24.75-25.56,24.12,9.81,24.12,24.39c0,1.71-.09,3.33-.36,5.04h-37.89c.72,8.19,6.57,13.14,14.13,13.14,6.3,0,9.81-3.06,11.7-6.93h11.07c-2.79,8.64-10.62,15.57-22.77,15.57ZM153.36,85.12h27.45c-.18-7.65-6.21-12.51-13.86-12.51-6.93,0-12.51,4.68-13.59,12.51Z"></path><path class="cls-3" d="M201.6,47.77h10.26v66.6h-10.26V47.77Z"></path><path class="cls-3" d="M225.36,47.77h10.26v66.6h-10.26V47.77Z"></path><path class="cls-3" d="M270.44,115.17c-14.22,0-24.75-10.08-24.75-25.65s10.08-25.56,24.75-25.56,24.12,9.81,24.12,24.39c0,1.71-.09,3.33-.36,5.04h-37.89c.72,8.19,6.57,13.14,14.13,13.14,6.3,0,9.81-3.06,11.7-6.93h11.07c-2.79,8.64-10.62,15.57-22.77,15.57ZM256.4,85.12h27.45c-.18-7.65-6.21-12.51-13.86-12.51-6.93,0-12.51,4.68-13.59,12.51Z"></path><path class="cls-3" d="M339.83,86.65c0-9.09-4.95-13.77-12.42-13.77s-12.51,4.68-12.51,13.77v27.72h-10.26v-49.59h10.26v5.67c3.33-4.05,8.82-6.48,14.76-6.48,11.61,0,20.34,7.29,20.34,21.15v29.25h-10.17v-27.72Z"></path><path class="cls-3" d="M364.67,73.15h-5.85v-8.37h5.85v-12.33h10.35v12.33h12.06v8.37h-12.06v27.45c0,3.69,1.44,5.22,5.76,5.22h6.3v8.55h-8.1c-8.82,0-14.31-3.69-14.31-13.77v-27.45Z"></path></g><g><path class="cls-3" d="M1244.13,58.12h-8.37v-9.36h18.72v65.61h-10.35v-56.25Z"></path><path class="cls-3" d="M1275.63,58.12h-8.37v-9.36h18.72v65.61h-10.35v-56.25Z"></path><path class="cls-3" d="M1312.88,96.55c1.17,5.85,5.04,9.18,11.88,9.18,8.19,0,12.33-5.49,12.33-22.23-2.97,4.14-8.64,6.39-14.58,6.39-11.52,0-20.88-7.11-20.88-20.97,0-13.05,8.01-21.69,21.78-21.69,16.92,0,22.59,11.61,22.59,33.12s-4.68,33.93-21.87,33.93c-13.59,0-19.89-8.37-20.7-17.73h9.45ZM1335.92,68.92c0-8.37-4.77-13.14-12.24-13.14s-12.24,5.31-12.24,12.87c0,6.75,3.78,12.6,12.87,12.6,7.29,0,11.61-4.95,11.61-12.33Z"></path><path class="cls-3" d="M1403.6,51.82c14.85,0,22.14,8.55,22.14,18.72,0,7.38-3.96,15.3-14.49,17.91l15.48,25.92h-12.24l-14.4-25.02h-7.83v25.02h-10.26v-62.55h21.6ZM1403.6,60.19h-11.34v20.97h11.34c8.01,0,11.61-4.41,11.61-10.62s-3.6-10.35-11.61-10.35Z"></path><path class="cls-3" d="M1460.21,115.17c-14.22,0-24.75-10.08-24.75-25.65s10.08-25.56,24.75-25.56,24.12,9.81,24.12,24.39c0,1.71-.09,3.33-.36,5.04h-37.89c.72,8.19,6.57,13.14,14.13,13.14,6.3,0,9.81-3.06,11.7-6.93h11.07c-2.79,8.64-10.62,15.57-22.77,15.57ZM1446.17,85.12h27.45c-.18-7.65-6.21-12.51-13.86-12.51-6.93,0-12.51,4.68-13.59,12.51Z"></path><path class="cls-3" d="M1499.54,64.78l14.04,40.41,14.04-40.41h10.89l-18.9,49.59h-12.24l-18.81-49.59h10.98Z"></path><path class="cls-3" d="M1544.9,51.64c0-3.69,2.88-6.57,6.57-6.57s6.48,2.88,6.48,6.57-2.88,6.57-6.48,6.57-6.57-2.88-6.57-6.57ZM1546.25,64.78h10.26v49.59h-10.26v-49.59Z"></path><path class="cls-3" d="M1591.34,115.17c-14.22,0-24.75-10.08-24.75-25.65s10.08-25.56,24.75-25.56,24.12,9.81,24.12,24.39c0,1.71-.09,3.33-.36,5.04h-37.89c.72,8.19,6.57,13.14,14.13,13.14,6.3,0,9.81-3.06,11.7-6.93h11.07c-2.79,8.64-10.62,15.57-22.77,15.57ZM1577.3,85.12h27.45c-.18-7.65-6.21-12.51-13.86-12.51-6.93,0-12.51,4.68-13.59,12.51Z"></path><path class="cls-3" d="M1619.69,64.78h10.44l10.35,39.87,10.53-39.87h10.71l10.08,39.69,10.26-39.69h10.08l-15.39,49.59h-10.8l-9.99-36.63-9.99,36.63h-10.8l-15.48-49.59Z"></path><path class="cls-3" d="M1717.79,115.17c-11.88,0-20.25-7.02-20.7-16.02h10.62c.36,4.05,4.23,7.38,9.9,7.38s9.09-2.52,9.09-5.94c0-9.72-28.8-4.14-28.8-22.32,0-7.92,7.38-14.31,19.08-14.31s18.63,6.03,19.17,15.93h-10.26c-.36-4.32-3.69-7.29-9.27-7.29s-8.37,2.25-8.37,5.58c0,9.99,27.99,4.41,28.53,22.32,0,8.37-7.29,14.67-18.99,14.67Z"></path></g></g></g></svg>